<svg width="276" height="95" viewBox="0 0 276 95" fill="none" xmlns="http://www.w3.org/2000/svg">
<path d="M33.9492 29.5471V35.9833V65.2876L62.1759 80V43.0401L33.9492 29.5471Z" fill="white"/>
<path d="M62.1759 43.0401V80L88.865 66.4004C90.2051 65.7175 91.0489 64.3406 91.0489 62.8364V49.731L73.9704 58.188C71.9762 59.1755 69.5595 58.3457 68.5927 56.3414L62.1759 43.0401Z" fill="white"/>
<path d="M62.1759 43.0401L68.5927 56.3414C69.5595 58.3457 71.9762 59.1755 73.9704 58.188L91.0489 49.731L96.5487 47.0643C98.6688 46.0363 99.4455 43.4078 98.2247 41.3926L91.0489 29.5471L62.1759 43.0401Z" fill="white"/>
<path d="M62.1759 43.0401L91.0489 29.5471L62.1759 15V43.0401Z" fill="white"/>
<path d="M33.9492 29.5471L62.1759 43.0401V15L33.9492 29.5471Z" fill="#252525"/>
<path d="M33.9492 35.9833V29.5471L23.5 43.0401L33.9492 35.9833Z" fill="#252525"/>
<path d="M33.9492 29.5471V65.2876M33.9492 29.5471L62.1759 43.0401M33.9492 29.5471L62.1759 15M33.9492 29.5471L23.5 43.0401L33.9492 35.9833M33.9492 29.5471V35.9833M33.9492 65.2876L62.1759 80M33.9492 65.2876V35.9833M62.1759 80V43.0401M62.1759 80L88.865 66.4004C90.2051 65.7175 91.0489 64.3406 91.0489 62.8364V49.731M62.1759 43.0401L68.5927 56.3414C69.5595 58.3457 71.9762 59.1755 73.9704 58.188L91.0489 49.731M62.1759 43.0401L91.0489 29.5471M62.1759 43.0401V15M91.0489 29.5471L98.2247 41.3926C99.4455 43.4078 98.6688 46.0363 96.5487 47.0643L91.0489 49.731M91.0489 29.5471L62.1759 15" stroke="#252525" stroke-width="8" stroke-linejoin="round"/>
<path d="M122.908 66V21.2H143.004C148.166 21.2 152.134 22.2453 154.908 24.336C157.681 26.384 159.068 29.2 159.068 32.784C159.068 35.216 158.513 37.264 157.404 38.928C156.337 40.592 154.886 41.872 153.052 42.768C151.217 43.664 149.233 44.112 147.1 44.112L148.252 42.192C150.812 42.192 153.073 42.64 155.036 43.536C156.998 44.432 158.556 45.7547 159.708 47.504C160.86 49.2107 161.436 51.344 161.436 53.904C161.436 57.744 159.985 60.7307 157.084 62.864C154.225 64.9547 149.958 66 144.284 66H122.908ZM129.308 60.816H144.028C147.569 60.816 150.278 60.2187 152.156 59.024C154.033 57.8293 154.972 55.952 154.972 53.392C154.972 50.7893 154.033 48.8907 152.156 47.696C150.278 46.5013 147.569 45.904 144.028 45.904H128.732V40.72H142.428C145.67 40.72 148.188 40.1227 149.979 38.928C151.772 37.7333 152.668 35.9413 152.668 33.552C152.668 31.1627 151.772 29.3707 149.979 28.176C148.188 26.9813 145.67 26.384 142.428 26.384H129.308V60.816ZM191.569 66.512C188.156 66.512 184.977 65.936 182.033 64.784C179.132 63.632 176.614 62.032 174.481 59.984C172.348 57.8933 170.684 55.4613 169.489 52.688C168.294 49.9147 167.697 46.8853 167.697 43.6C167.697 40.3147 168.294 37.2853 169.489 34.512C170.684 31.7387 172.348 29.328 174.481 27.28C176.614 25.1893 179.132 23.568 182.033 22.416C184.934 21.264 188.113 20.688 191.569 20.688C194.982 20.688 198.118 21.264 200.977 22.416C203.878 23.5253 206.396 25.1253 208.529 27.216C210.705 29.264 212.369 31.6747 213.521 34.448C214.716 37.2213 215.313 40.272 215.313 43.6C215.313 46.928 214.716 49.9787 213.521 52.752C212.369 55.5253 210.705 57.9573 208.529 60.048C206.396 62.096 203.878 63.696 200.977 64.848C198.118 65.9573 194.982 66.512 191.569 66.512ZM191.569 60.816C194.044 60.816 196.326 60.3893 198.417 59.536C200.55 58.6827 202.385 57.488 203.921 55.952C205.5 54.3733 206.716 52.5387 207.569 50.448C208.465 48.3573 208.913 46.0747 208.913 43.6C208.913 41.1253 208.465 38.8427 207.569 36.752C206.716 34.6613 205.5 32.848 203.921 31.312C202.385 29.7333 200.55 28.5173 198.417 27.664C196.326 26.8107 194.044 26.384 191.569 26.384C189.052 26.384 186.726 26.8107 184.593 27.664C182.502 28.5173 180.668 29.7333 179.089 31.312C177.51 32.848 176.273 34.6613 175.377 36.752C174.524 38.8427 174.097 41.1253 174.097 43.6C174.097 46.0747 174.524 48.3573 175.377 50.448C176.273 52.5387 177.51 54.3733 179.089 55.952C180.668 57.488 182.502 58.6827 184.593 59.536C186.726 60.3893 189.052 60.816 191.569 60.816ZM217.582 66L236.206 40.592V45.52L218.606 21.2H225.902L239.854 40.336L236.974 40.4L250.862 21.2H257.838L240.366 45.136V40.528L258.99 66H251.63L236.782 45.584H239.598L224.942 66H217.582ZM139.922 86.08C139.111 86.08 138.381 85.8987 137.73 85.536C137.09 85.1627 136.583 84.656 136.21 84.016C135.837 83.3653 135.65 82.624 135.65 81.792C135.65 80.9493 135.837 80.208 136.21 79.568C136.583 78.928 137.09 78.4267 137.73 78.064C138.37 77.7013 139.101 77.52 139.922 77.52C140.754 77.52 141.49 77.7013 142.13 78.064C142.781 78.4267 143.287 78.928 143.65 79.568C144.023 80.208 144.21 80.9493 144.21 81.792C144.21 82.624 144.023 83.3653 143.65 84.016C143.287 84.656 142.781 85.1627 142.13 85.536C141.479 85.8987 140.743 86.08 139.922 86.08ZM139.922 85.072C140.53 85.072 141.069 84.9387 141.538 84.672C142.007 84.3947 142.375 84.0107 142.642 83.52C142.919 83.0187 143.058 82.4427 143.058 81.792C143.058 81.1307 142.919 80.5547 142.642 80.064C142.375 79.5733 142.007 79.1947 141.538 78.928C141.069 78.6507 140.535 78.512 139.938 78.512C139.341 78.512 138.807 78.6507 138.338 78.928C137.869 79.1947 137.495 79.5733 137.218 80.064C136.941 80.5547 136.802 81.1307 136.802 81.792C136.802 82.4427 136.941 83.0187 137.218 83.52C137.495 84.0107 137.869 84.3947 138.338 84.672C138.807 84.9387 139.335 85.072 139.922 85.072ZM146.721 86V76.544C146.721 75.7973 146.94 75.1947 147.377 74.736C147.815 74.2773 148.444 74.048 149.265 74.048C149.585 74.048 149.895 74.0907 150.193 74.176C150.492 74.2613 150.743 74.3947 150.945 74.576L150.561 75.424C150.401 75.2853 150.215 75.184 150.001 75.12C149.788 75.0453 149.559 75.008 149.313 75.008C148.833 75.008 148.465 75.1413 148.209 75.408C147.953 75.6747 147.825 76.0693 147.825 76.592V77.872L147.857 78.4V86H146.721ZM145.217 78.544V77.6H150.417V78.544H145.217ZM159.707 86.08C158.832 86.08 158.064 85.8987 157.403 85.536C156.741 85.1627 156.224 84.656 155.851 84.016C155.477 83.3653 155.291 82.624 155.291 81.792C155.291 80.96 155.467 80.224 155.819 79.584C156.181 78.944 156.672 78.4427 157.291 78.08C157.92 77.7067 158.624 77.52 159.403 77.52C160.192 77.52 160.891 77.7013 161.499 78.064C162.117 78.416 162.603 78.9173 162.955 79.568C163.307 80.208 163.483 80.9493 163.483 81.792C163.483 81.8453 163.477 81.904 163.467 81.968C163.467 82.0213 163.467 82.08 163.467 82.144H156.155V81.296H162.859L162.411 81.632C162.411 81.024 162.277 80.4853 162.011 80.016C161.755 79.536 161.403 79.1627 160.955 78.896C160.507 78.6293 159.989 78.496 159.403 78.496C158.827 78.496 158.309 78.6293 157.851 78.896C157.392 79.1627 157.035 79.536 156.779 80.016C156.523 80.496 156.395 81.0453 156.395 81.664V81.84C156.395 82.48 156.533 83.0453 156.811 83.536C157.099 84.016 157.493 84.3947 157.995 84.672C158.507 84.9387 159.088 85.072 159.739 85.072C160.251 85.072 160.725 84.9813 161.163 84.8C161.611 84.6187 161.995 84.3413 162.315 83.968L162.955 84.704C162.581 85.152 162.112 85.4933 161.547 85.728C160.992 85.9627 160.379 86.08 159.707 86.08ZM167.799 86L164.071 77.6H165.255L168.679 85.392H168.119L171.591 77.6H172.711L168.967 86H167.799ZM177.644 86.08C176.77 86.08 176.002 85.8987 175.34 85.536C174.679 85.1627 174.162 84.656 173.788 84.016C173.415 83.3653 173.228 82.624 173.228 81.792C173.228 80.96 173.404 80.224 173.756 79.584C174.119 78.944 174.61 78.4427 175.228 78.08C175.858 77.7067 176.562 77.52 177.34 77.52C178.13 77.52 178.828 77.7013 179.436 78.064C180.055 78.416 180.54 78.9173 180.892 79.568C181.244 80.208 181.42 80.9493 181.42 81.792C181.42 81.8453 181.415 81.904 181.404 81.968C181.404 82.0213 181.404 82.08 181.404 82.144H174.092V81.296H180.796L180.348 81.632C180.348 81.024 180.215 80.4853 179.948 80.016C179.692 79.536 179.34 79.1627 178.892 78.896C178.444 78.6293 177.927 78.496 177.34 78.496C176.764 78.496 176.247 78.6293 175.788 78.896C175.33 79.1627 174.972 79.536 174.716 80.016C174.46 80.496 174.332 81.0453 174.332 81.664V81.84C174.332 82.48 174.471 83.0453 174.748 83.536C175.036 84.016 175.431 84.3947 175.932 84.672C176.444 84.9387 177.026 85.072 177.676 85.072C178.188 85.072 178.663 84.9813 179.1 84.8C179.548 84.6187 179.932 84.3413 180.252 83.968L180.892 84.704C180.519 85.152 180.05 85.4933 179.484 85.728C178.93 85.9627 178.316 86.08 177.644 86.08ZM183.732 86V77.6H184.82V79.888L184.708 79.488C184.943 78.848 185.338 78.3627 185.892 78.032C186.447 77.6907 187.135 77.52 187.956 77.52V78.624C187.914 78.624 187.871 78.624 187.828 78.624C187.786 78.6133 187.743 78.608 187.7 78.608C186.815 78.608 186.122 78.88 185.62 79.424C185.119 79.9573 184.868 80.72 184.868 81.712V86H183.732ZM190.453 89.184C190.058 89.184 189.679 89.12 189.317 88.992C188.965 88.864 188.661 88.672 188.405 88.416L188.933 87.568C189.146 87.7707 189.375 87.9253 189.621 88.032C189.877 88.1493 190.159 88.208 190.469 88.208C190.842 88.208 191.162 88.1013 191.429 87.888C191.706 87.6853 191.967 87.3227 192.213 86.8L192.757 85.568L192.885 85.392L196.341 77.6H197.461L193.253 87.008C193.018 87.552 192.757 87.984 192.469 88.304C192.191 88.624 191.887 88.848 191.557 88.976C191.226 89.1147 190.858 89.184 190.453 89.184ZM192.693 86.24L188.821 77.6H190.005L193.429 85.312L192.693 86.24ZM201.951 86.08C201.162 86.08 200.554 85.8667 200.127 85.44C199.7 85.0133 199.487 84.4107 199.487 83.632V75.744H200.623V83.568C200.623 84.0587 200.746 84.4373 200.991 84.704C201.247 84.9707 201.61 85.104 202.079 85.104C202.58 85.104 202.996 84.96 203.327 84.672L203.727 85.488C203.503 85.6907 203.231 85.84 202.911 85.936C202.602 86.032 202.282 86.08 201.951 86.08ZM197.983 78.544V77.6H203.183V78.544H197.983ZM210.083 77.52C210.766 77.52 211.363 77.6533 211.875 77.92C212.398 78.176 212.803 78.5707 213.091 79.104C213.39 79.6373 213.539 80.3093 213.539 81.12V86H212.403V81.232C212.403 80.3467 212.179 79.68 211.731 79.232C211.294 78.7733 210.675 78.544 209.875 78.544C209.278 78.544 208.755 78.6667 208.307 78.912C207.87 79.1467 207.528 79.4933 207.283 79.952C207.048 80.4 206.931 80.944 206.931 81.584V86H205.795V74.128H206.931V79.904L206.707 79.472C206.974 78.864 207.4 78.3893 207.987 78.048C208.574 77.696 209.272 77.52 210.083 77.52ZM216.607 86V77.6H217.743V86H216.607ZM217.183 75.744C216.949 75.744 216.751 75.664 216.591 75.504C216.431 75.344 216.351 75.152 216.351 74.928C216.351 74.704 216.431 74.5173 216.591 74.368C216.751 74.208 216.949 74.128 217.183 74.128C217.418 74.128 217.615 74.2027 217.775 74.352C217.935 74.5013 218.015 74.688 218.015 74.912C218.015 75.1467 217.935 75.344 217.775 75.504C217.626 75.664 217.429 75.744 217.183 75.744ZM225.192 77.52C225.875 77.52 226.472 77.6533 226.984 77.92C227.507 78.176 227.912 78.5707 228.2 79.104C228.499 79.6373 228.648 80.3093 228.648 81.12V86H227.512V81.232C227.512 80.3467 227.288 79.68 226.84 79.232C226.403 78.7733 225.784 78.544 224.984 78.544C224.387 78.544 223.864 78.6667 223.416 78.912C222.979 79.1467 222.638 79.4933 222.392 79.952C222.158 80.4 222.04 80.944 222.04 81.584V86H220.904V77.6H221.992V79.904L221.816 79.472C222.083 78.864 222.51 78.3893 223.096 78.048C223.683 77.696 224.382 77.52 225.192 77.52ZM235.301 89.184C234.533 89.184 233.797 89.072 233.093 88.848C232.389 88.624 231.818 88.304 231.381 87.888L231.957 87.024C232.351 87.376 232.837 87.6533 233.413 87.856C233.999 88.0693 234.618 88.176 235.269 88.176C236.335 88.176 237.119 87.9253 237.621 87.424C238.122 86.9333 238.373 86.1653 238.373 85.12V83.024L238.533 81.584L238.421 80.144V77.6H239.509V84.976C239.509 86.4267 239.151 87.488 238.437 88.16C237.733 88.8427 236.687 89.184 235.301 89.184ZM235.093 85.68C234.293 85.68 233.573 85.5093 232.933 85.168C232.293 84.816 231.786 84.3307 231.413 83.712C231.05 83.0933 230.869 82.384 230.869 81.584C230.869 80.784 231.05 80.08 231.413 79.472C231.786 78.8533 232.293 78.3733 232.933 78.032C233.573 77.6907 234.293 77.52 235.093 77.52C235.839 77.52 236.511 77.6747 237.109 77.984C237.706 78.2933 238.181 78.752 238.533 79.36C238.885 79.968 239.061 80.7093 239.061 81.584C239.061 82.4587 238.885 83.2 238.533 83.808C238.181 84.416 237.706 84.88 237.109 85.2C236.511 85.52 235.839 85.68 235.093 85.68ZM235.205 84.672C235.823 84.672 236.373 84.544 236.853 84.288C237.333 84.0213 237.711 83.6587 237.989 83.2C238.266 82.7307 238.405 82.192 238.405 81.584C238.405 80.976 238.266 80.4427 237.989 79.984C237.711 79.5253 237.333 79.168 236.853 78.912C236.373 78.6453 235.823 78.512 235.205 78.512C234.597 78.512 234.047 78.6453 233.557 78.912C233.077 79.168 232.698 79.5253 232.421 79.984C232.154 80.4427 232.021 80.976 232.021 81.584C232.021 82.192 232.154 82.7307 232.421 83.2C232.698 83.6587 233.077 84.0213 233.557 84.288C234.047 84.544 234.597 84.672 235.205 84.672Z" fill="white"/>
</svg>
